<svg width="12" height="8" viewBox="0 0 12 8" fill="none" xmlns="http://www.w3.org/2000/svg">
<path d="M9.34375 3L12 0.34375V7.65625L9.34375 5V7.34375C9.34375 7.53125 9.27604 7.6875 9.14062 7.8125C9.00521 7.9375 8.84375 8 8.65625 8H0.65625C0.46875 8 0.3125 7.9375 0.1875 7.8125C0.0625 7.6875 0 7.53125 0 7.34375V0.65625C0 0.46875 0.0625 0.3125 0.1875 0.1875C0.3125 0.0625 0.46875 0 0.65625 0H8.65625C8.84375 0 9.00521 0.0625 9.14062 0.1875C9.27604 0.3125 9.34375 0.46875 9.34375 0.65625V3Z" fill="white"/>
</svg>
