<svg width="12" height="9" viewBox="0 0 12 9" fill="none" xmlns="http://www.w3.org/2000/svg">
<path d="M8.18182 3.67272C9.08727 3.67272 9.81273 2.94181 9.81273 2.03636C9.81273 1.1309 9.08727 0.399994 8.18182 0.399994C7.27636 0.399994 6.54545 1.1309 6.54545 2.03636C6.54545 2.94181 7.27636 3.67272 8.18182 3.67272ZM3.81818 3.67272C4.72364 3.67272 5.44909 2.94181 5.44909 2.03636C5.44909 1.1309 4.72364 0.399994 3.81818 0.399994C2.91273 0.399994 2.18182 1.1309 2.18182 2.03636C2.18182 2.94181 2.91273 3.67272 3.81818 3.67272ZM3.81818 4.76363C2.54727 4.76363 0 5.40181 0 6.67272V8.03636H7.63636V6.67272C7.63636 5.40181 5.08909 4.76363 3.81818 4.76363ZM8.18182 4.76363C8.02364 4.76363 7.84364 4.77454 7.65273 4.7909C8.28545 5.24908 8.72727 5.86545 8.72727 6.67272V8.03636H12V6.67272C12 5.40181 9.45273 4.76363 8.18182 4.76363Z" fill="white"/>
</svg>
